# Blender 4.1.0
# www.blender.org
mtllib bm_classic.mtl
o ModifierCrosstie.001
v 0.001503 -0.531375 0.013000
v 0.000000 -0.530033 0.015000
v -0.001503 -0.531375 0.013000
v -0.609014 -0.032677 0.013000
v -0.608089 -0.030876 0.015000
v 0.000000 -0.072254 0.015000
v 0.000000 -0.070254 0.013000
v -0.535147 0.046331 -0.013000
v -0.535665 0.044399 -0.015000
v -0.100000 -0.070254 0.013000
v -0.100264 -0.072254 0.015000
v 0.001503 -0.531375 -0.013000
v -0.001503 -0.531375 -0.013000
v 0.000000 -0.530033 -0.015000
v -0.608089 -0.030876 -0.015000
v -0.609014 -0.032677 -0.013000
v 0.000000 -0.070254 -0.013000
v 0.000000 -0.072254 -0.015000
v -0.535147 0.046331 0.013000
v -0.535665 0.044399 0.015000
v -0.100264 -0.072254 -0.015000
v -0.100000 -0.070254 -0.013000
v -0.566878 0.049389 0.015000
v -0.565879 0.051334 0.013000
v -0.565879 0.051334 -0.013000
v -0.566878 0.049389 -0.015000
v -0.550833 0.048463 -0.015000
v -0.550513 0.050448 -0.013000
v -0.550513 0.050448 0.013000
v -0.550833 0.048463 0.015000
v -0.546167 -0.053439 0.013000
v -0.545154 -0.051668 0.015000
v -0.545154 -0.051668 -0.015000
v -0.546167 -0.053439 -0.013000
v 0.608089 -0.030876 0.015000
v 0.609014 -0.032677 0.013000
v 0.535665 0.044399 -0.015000
v 0.535147 0.046331 -0.013000
v 0.100264 -0.072254 0.015000
v 0.100000 -0.070254 0.013000
v 0.609014 -0.032677 -0.013000
v 0.608089 -0.030876 -0.015000
v 0.535665 0.044399 0.015000
v 0.535147 0.046331 0.013000
v 0.100000 -0.070254 -0.013000
v 0.100264 -0.072254 -0.015000
v 0.565879 0.051334 0.013000
v 0.566878 0.049389 0.015000
v 0.566878 0.049389 -0.015000
v 0.565879 0.051334 -0.013000
v 0.550513 0.050448 -0.013000
v 0.550833 0.048463 -0.015000
v 0.550833 0.048463 0.015000
v 0.550513 0.050448 0.013000
v 0.545154 -0.051668 0.015000
v 0.546167 -0.053439 0.013000
v 0.546167 -0.053439 -0.013000
v 0.545154 -0.051668 -0.015000
vn -0.0000 -0.0000 -1.0000
vn 0.2588 0.9659 -0.0000
vn 0.6596 -0.7516 -0.0000
vn 0.4966 -0.8680 -0.0000
vn 0.3137 -0.9495 -0.0000
vn -0.3137 -0.9495 -0.0000
vn -0.4966 -0.8680 -0.0000
vn -0.0000 1.0000 -0.0000
vn -0.1590 0.9873 -0.0000
vn -0.0576 0.9983 -0.0000
vn 0.1590 0.9873 -0.0000
vn 0.0576 0.9983 -0.0000
vn -0.0000 -0.0000 1.0000
vn -0.6596 -0.7516 -0.0000
vn -0.2588 0.9659 -0.0000
vn 0.6656 -0.7462 -0.0089
vn -0.0000 0.0173 0.9998
vn -0.6656 -0.7462 0.0089
vn -0.0000 0.0173 -0.9998
vn 0.1305 0.9914 -0.0020
vn -0.0000 -0.0001 1.0000
vn -0.4965 -0.8680 -0.0091
vn -0.0000 0.0001 1.0000
vn -0.0007 -0.0046 -1.0000
vn 0.1591 0.9873 0.0052
vn 0.1305 0.9914 0.0020
vn -0.0001 -0.0000 -1.0000
vn -0.4966 -0.8679 0.0091
vn 0.0001 -0.0000 -1.0000
vn -0.0008 -0.0046 1.0000
vn 0.1590 0.9873 -0.0052
vn -0.1305 0.9914 -0.0020
vn 0.0001 -0.0000 1.0000
vn 0.4966 -0.8679 -0.0091
vn -0.0001 -0.0000 1.0000
vn 0.0008 -0.0046 -1.0000
vn -0.1590 0.9873 0.0052
vn -0.1305 0.9914 0.0020
vn -0.0000 -0.0001 -1.0000
vn 0.4965 -0.8680 0.0091
vn -0.0000 0.0001 -1.0000
vn 0.0007 -0.0046 1.0000
vn -0.1591 0.9873 -0.0052
vn -0.1138 -0.0000 -0.9935
vn -1.0000 -0.0000 -0.0000
vn -0.3137 -0.9495 0.0001
vn 0.3137 -0.9495 0.0001
vn 1.0000 -0.0000 -0.0000
vt 0.000000 0.000000
s 1
usemtl Material.002
f 46/1/1 52/1/1 58/1/1
f 8/1/2 10/1/2 22/1/2
f 1/1/3 57/1/4 56/1/4
f 56/1/4 41/1/5 36/1/5
f 16/1/6 31/1/7 4/1/6
f 7/1/8 45/1/8 17/1/8
f 33/1/1 26/1/1 9/1/1
f 22/1/8 7/1/8 17/1/8
f 51/1/9 47/1/10 50/1/10
f 28/1/11 24/1/12 29/1/11
f 11/1/13 30/1/13 32/1/13
f 34/1/7 3/1/14 31/1/7
f 8/1/2 29/1/11 19/1/2
f 40/1/15 38/1/15 45/1/15
f 38/1/15 54/1/9 51/1/9
f 1/1/16 2/1/17 3/1/14
f 12/1/3 13/1/18 14/1/19
f 6/1/13 10/1/20 11/1/21
f 20/1/13 10/1/20 19/1/2
f 5/1/13 31/1/22 32/1/23
f 8/1/2 27/1/24 28/1/25
f 22/1/26 18/1/1 21/1/27
f 22/1/26 9/1/1 8/1/2
f 25/1/12 27/1/24 26/1/1
f 1/1/16 13/1/18 12/1/3
f 34/1/28 15/1/1 33/1/29
f 30/1/30 19/1/2 29/1/31
f 30/1/30 24/1/12 23/1/13
f 2/1/17 31/1/22 3/1/14
f 34/1/28 14/1/19 13/1/18
f 40/1/32 6/1/13 39/1/33
f 40/1/32 43/1/13 44/1/15
f 56/1/34 35/1/13 55/1/35
f 52/1/36 38/1/15 51/1/37
f 18/1/1 45/1/38 46/1/39
f 37/1/1 45/1/38 38/1/15
f 52/1/36 50/1/10 49/1/1
f 42/1/1 57/1/40 58/1/41
f 44/1/15 53/1/42 54/1/43
f 47/1/10 53/1/42 48/1/13
f 56/1/34 2/1/17 1/1/16
f 14/1/19 57/1/40 12/1/3
f 55/1/13 53/1/13 39/1/13
f 14/1/1 18/1/1 46/1/1
f 46/1/1 37/1/44 52/1/1
f 52/1/1 49/1/1 42/1/1
f 58/1/1 14/1/1 46/1/1
f 52/1/1 42/1/1 58/1/1
f 8/1/2 19/1/2 10/1/2
f 1/1/3 12/1/3 57/1/4
f 56/1/4 57/1/4 41/1/5
f 16/1/6 34/1/7 31/1/7
f 7/1/8 40/1/8 45/1/8
f 21/1/1 18/1/1 14/1/1
f 33/1/1 15/1/1 26/1/1
f 21/1/1 14/1/1 33/1/1
f 26/1/1 27/1/1 9/1/1
f 9/1/1 21/1/1 33/1/1
f 22/1/8 10/1/8 7/1/8
f 51/1/9 54/1/9 47/1/10
f 28/1/11 25/1/12 24/1/12
f 2/1/13 6/1/13 11/1/13
f 11/1/13 20/1/45 30/1/13
f 30/1/13 23/1/13 5/1/13
f 32/1/13 2/1/13 11/1/13
f 30/1/13 5/1/13 32/1/13
f 34/1/7 13/1/14 3/1/14
f 8/1/2 28/1/11 29/1/11
f 40/1/15 44/1/15 38/1/15
f 38/1/15 44/1/15 54/1/9
f 6/1/13 7/1/8 10/1/20
f 20/1/13 11/1/21 10/1/20
f 5/1/13 4/1/6 31/1/22
f 8/1/2 9/1/1 27/1/24
f 22/1/26 17/1/8 18/1/1
f 22/1/26 21/1/27 9/1/1
f 25/1/12 28/1/25 27/1/24
f 1/1/16 3/1/14 13/1/18
f 34/1/28 16/1/46 15/1/1
f 30/1/30 20/1/13 19/1/2
f 30/1/30 29/1/31 24/1/12
f 2/1/17 32/1/23 31/1/22
f 34/1/28 33/1/29 14/1/19
f 40/1/32 7/1/8 6/1/13
f 40/1/32 39/1/33 43/1/13
f 56/1/34 36/1/5 35/1/13
f 52/1/36 37/1/1 38/1/15
f 18/1/1 17/1/8 45/1/38
f 37/1/1 46/1/39 45/1/38
f 52/1/36 51/1/37 50/1/10
f 42/1/1 41/1/47 57/1/40
f 44/1/15 43/1/13 53/1/42
f 47/1/10 54/1/43 53/1/42
f 56/1/34 55/1/35 2/1/17
f 14/1/19 58/1/41 57/1/40
f 39/1/13 6/1/13 2/1/13
f 55/1/13 35/1/13 48/1/13
f 39/1/13 2/1/13 55/1/13
f 53/1/13 43/1/48 39/1/13
f 55/1/13 48/1/13 53/1/13
