# Blender 4.1.0
# www.blender.org
o Cube.001
v -0.900000 -0.049971 0.015000
v -0.900000 0.060000 0.015000
v -0.900000 -0.049971 -0.015000
v -0.900000 0.060000 -0.015000
v 0.900000 -0.049971 0.015000
v 0.900000 0.060000 0.015000
v 0.900000 -0.049971 -0.015000
v 0.900000 0.060000 -0.015000
v 0.416324 -0.441488 -0.015000
v 0.000000 -0.441488 -0.015000
v -0.416324 -0.441488 -0.015000
v -0.416324 -0.441488 0.015000
v 0.000000 -0.441488 0.015000
v 0.416324 -0.441488 0.015000
v -0.529222 -0.248070 -0.015000
v 0.529222 -0.248070 0.015000
v 0.529222 -0.248070 -0.015000
v -0.529222 -0.248070 0.015000
vn -1.0000 -0.0000 -0.0000
vn -0.0000 -0.0000 -1.0000
vn 1.0000 -0.0000 -0.0000
vn -0.0000 -0.0000 1.0000
vn 0.4712 -0.8820 -0.0000
vn -0.0000 1.0000 -0.0000
vn -0.8636 -0.5041 -0.0000
vn -0.0000 -1.0000 -0.0000
vn -0.4712 -0.8820 -0.0000
vn 0.8636 -0.5041 -0.0000
vt 0.625000 0.000000
vt 0.375000 0.250000
vt 0.375000 0.000000
vt 0.375000 0.468750
vt 0.375000 0.375000
vt 0.375000 0.312500
vt 0.625000 0.500000
vt 0.375000 0.750000
vt 0.375000 0.500000
vt 0.375000 0.968750
vt 0.375000 0.875000
vt 0.375000 0.812500
vt 0.343750 0.500000
vt 0.343750 0.750000
vt 0.875000 0.500000
vt 0.625000 0.750000
vt 0.187500 0.500000
vt 0.156250 0.750000
vt 0.156250 0.500000
vt 0.250000 0.500000
vt 0.187500 0.750000
vt 0.312500 0.500000
vt 0.250000 0.750000
vt 0.125000 0.750000
vt 0.125000 0.500000
vt 0.312500 0.750000
vt 0.375000 1.000000
vt 0.375000 0.781250
vt 0.625000 0.250000
vt 0.375000 0.281250
vt 0.375000 0.437500
vt 0.375000 0.937500
vt 0.875000 0.750000
vt 0.625000 1.000000
s 0
f 2/1/1 3/2/1 1/3/1
f 17/4/2 10/5/2 11/6/2
f 8/7/3 5/8/3 7/9/3
f 18/10/4 13/11/4 14/12/4
f 17/13/5 5/8/5 16/14/5
f 4/15/6 6/16/6 8/7/6
f 11/17/7 18/18/7 15/19/7
f 10/20/8 12/21/8 11/17/8
f 9/22/8 13/23/8 10/20/8
f 15/19/9 1/24/9 3/25/9
f 17/13/10 14/26/10 9/22/10
f 6/16/4 1/27/4 16/28/4
f 4/29/2 7/9/2 15/30/2
f 2/1/1 4/29/1 3/2/1
f 11/6/2 15/30/2 17/4/2
f 17/4/2 9/31/2 10/5/2
f 8/7/3 6/16/3 5/8/3
f 14/12/4 16/28/4 18/10/4
f 18/10/4 12/32/4 13/11/4
f 17/13/5 7/9/5 5/8/5
f 4/15/6 2/33/6 6/16/6
f 11/17/7 12/21/7 18/18/7
f 10/20/8 13/23/8 12/21/8
f 9/22/8 14/26/8 13/23/8
f 15/19/9 18/18/9 1/24/9
f 17/13/10 16/14/10 14/26/10
f 16/28/4 5/8/4 6/16/4
f 6/16/4 2/34/4 1/27/4
f 1/27/4 18/10/4 16/28/4
f 15/30/2 3/2/2 4/29/2
f 4/29/2 8/7/2 7/9/2
f 7/9/2 17/4/2 15/30/2
