# Blender 4.1.0
# www.blender.org
mtllib bm_classic_connector.mtl
o ModifierConnectorCrosstie.001
v 0.000000 -0.873735 0.013000
v 0.000000 -0.871736 0.015000
v -0.607775 -0.022602 0.013000
v -0.606785 -0.020854 0.015000
v 0.000000 -0.046691 0.015000
v 0.000000 -0.044691 0.013000
v -0.535147 0.046331 -0.013000
v -0.535611 0.044385 -0.015000
v -0.100000 -0.044691 0.013000
v -0.100207 -0.046691 0.015000
v 0.000000 -0.871736 -0.015000
v 0.000000 -0.873736 -0.013000
v -0.606785 -0.020854 -0.015000
v -0.607775 -0.022602 -0.013000
v 0.000000 -0.044691 -0.013000
v 0.000000 -0.046691 -0.015000
v -0.535147 0.046331 0.013000
v -0.535611 0.044385 0.015000
v -0.100207 -0.046691 -0.015000
v -0.100000 -0.044691 -0.013000
v -0.566978 0.049394 0.015000
v -0.565879 0.051334 0.013000
v -0.565879 0.051334 -0.013000
v -0.566978 0.049394 -0.015000
v -0.550833 0.048463 -0.015000
v -0.550513 0.050448 -0.013000
v -0.550513 0.050448 0.013000
v -0.550833 0.048463 0.015000
v -0.541224 -0.050395 0.015000
v -0.542451 -0.052035 0.013000
v -0.541224 -0.050395 -0.015000
v -0.542451 -0.052035 -0.013000
v -0.397215 -0.871736 0.015000
v -0.399215 -0.871736 0.013000
v -0.397215 -0.873736 0.013000
v -0.397215 -0.871736 -0.015000
v -0.397215 -0.873736 -0.013000
v -0.399215 -0.871736 -0.013000
v -0.411469 -0.201563 0.015000
v -0.413106 -0.202726 0.013000
v -0.397215 -0.240054 0.015000
v -0.399215 -0.240237 0.013000
v -0.404718 -0.213176 0.015000
v -0.406533 -0.214032 0.013000
v -0.399656 -0.226844 0.015000
v -0.401591 -0.227377 0.013000
v -0.397215 -0.240054 -0.015000
v -0.399215 -0.240237 -0.013000
v -0.411469 -0.201563 -0.015000
v -0.413106 -0.202726 -0.013000
v -0.399656 -0.226844 -0.015000
v -0.401591 -0.227377 -0.013000
v -0.404718 -0.213176 -0.015000
v -0.406533 -0.214032 -0.013000
v 0.606785 -0.020854 0.015000
v 0.607775 -0.022602 0.013000
v 0.535611 0.044385 -0.015000
v 0.535147 0.046331 -0.013000
v 0.100207 -0.046691 0.015000
v 0.100000 -0.044691 0.013000
v 0.607775 -0.022602 -0.013000
v 0.606785 -0.020854 -0.015000
v 0.535611 0.044385 0.015000
v 0.535147 0.046331 0.013000
v 0.100000 -0.044691 -0.013000
v 0.100207 -0.046691 -0.015000
v 0.565879 0.051334 0.013000
v 0.566978 0.049394 0.015000
v 0.566978 0.049394 -0.015000
v 0.565879 0.051334 -0.013000
v 0.550513 0.050448 -0.013000
v 0.550833 0.048463 -0.015000
v 0.550833 0.048463 0.015000
v 0.550513 0.050448 0.013000
v 0.541224 -0.050395 0.015000
v 0.542451 -0.052035 0.013000
v 0.541224 -0.050395 -0.015000
v 0.542451 -0.052035 -0.013000
v 0.397215 -0.871736 0.015000
v 0.397215 -0.873736 0.013000
v 0.399215 -0.871736 0.013000
v 0.397215 -0.871736 -0.015000
v 0.399215 -0.871736 -0.013000
v 0.397215 -0.873736 -0.013000
v 0.411469 -0.201563 0.015000
v 0.413106 -0.202726 0.013000
v 0.397215 -0.240054 0.015000
v 0.399215 -0.240237 0.013000
v 0.404718 -0.213176 0.015000
v 0.406533 -0.214032 0.013000
v 0.399656 -0.226844 0.015000
v 0.401591 -0.227377 0.013000
v 0.397215 -0.240054 -0.015000
v 0.399215 -0.240237 -0.013000
v 0.411469 -0.201563 -0.015000
v 0.413106 -0.202726 -0.013000
v 0.399656 -0.226844 -0.015000
v 0.401591 -0.227377 -0.013000
v 0.404718 -0.213176 -0.015000
v 0.406533 -0.214032 -0.013000
v 0.000000 -0.873735 -0.017000
v 0.000000 -0.871736 -0.015000
v -0.607775 -0.022602 -0.017000
v -0.606785 -0.020854 -0.015000
v 0.000000 -0.046691 -0.015000
v 0.000000 -0.044691 -0.017000
v -0.535147 0.046331 -0.043000
v -0.535611 0.044385 -0.045000
v -0.100000 -0.044691 -0.017000
v -0.100207 -0.046691 -0.015000
v 0.000000 -0.871736 -0.045000
v 0.000000 -0.873736 -0.043000
v -0.606785 -0.020854 -0.045000
v -0.607775 -0.022602 -0.043000
v 0.000000 -0.044691 -0.043000
v 0.000000 -0.046691 -0.045000
v -0.535147 0.046331 -0.017000
v -0.535611 0.044385 -0.015000
v -0.100207 -0.046691 -0.045000
v -0.100000 -0.044691 -0.043000
v -0.566978 0.049394 -0.015000
v -0.565879 0.051334 -0.017000
v -0.565879 0.051334 -0.043000
v -0.566978 0.049394 -0.045000
v -0.550833 0.048463 -0.045000
v -0.550513 0.050448 -0.043000
v -0.550513 0.050448 -0.017000
v -0.550833 0.048463 -0.015000
v -0.541224 -0.050395 -0.015000
v -0.542451 -0.052035 -0.017000
v -0.541224 -0.050395 -0.045000
v -0.542451 -0.052035 -0.043000
v -0.397215 -0.871736 -0.015000
v -0.399215 -0.871736 -0.017000
v -0.397215 -0.873736 -0.017000
v -0.397215 -0.871736 -0.045000
v -0.397215 -0.873736 -0.043000
v -0.399215 -0.871736 -0.043000
v -0.411469 -0.201563 -0.015000
v -0.413106 -0.202726 -0.017000
v -0.397215 -0.240054 -0.015000
v -0.399215 -0.240237 -0.017000
v -0.404718 -0.213176 -0.015000
v -0.406533 -0.214032 -0.017000
v -0.399656 -0.226844 -0.015000
v -0.401591 -0.227377 -0.017000
v -0.397215 -0.240054 -0.045000
v -0.399215 -0.240237 -0.043000
v -0.411469 -0.201563 -0.045000
v -0.413106 -0.202726 -0.043000
v -0.399656 -0.226844 -0.045000
v -0.401591 -0.227377 -0.043000
v -0.404718 -0.213176 -0.045000
v -0.406533 -0.214032 -0.043000
v 0.606785 -0.020854 -0.015000
v 0.607775 -0.022602 -0.017000
v 0.535611 0.044385 -0.045000
v 0.535147 0.046331 -0.043000
v 0.100207 -0.046691 -0.015000
v 0.100000 -0.044691 -0.017000
v 0.607775 -0.022602 -0.043000
v 0.606785 -0.020854 -0.045000
v 0.535611 0.044385 -0.015000
v 0.535147 0.046331 -0.017000
v 0.100000 -0.044691 -0.043000
v 0.100207 -0.046691 -0.045000
v 0.565879 0.051334 -0.017000
v 0.566978 0.049394 -0.015000
v 0.566978 0.049394 -0.045000
v 0.565879 0.051334 -0.043000
v 0.550513 0.050448 -0.043000
v 0.550833 0.048463 -0.045000
v 0.550833 0.048463 -0.015000
v 0.550513 0.050448 -0.017000
v 0.541224 -0.050395 -0.015000
v 0.542451 -0.052035 -0.017000
v 0.541224 -0.050395 -0.045000
v 0.542451 -0.052035 -0.043000
v 0.397215 -0.871736 -0.015000
v 0.397215 -0.873736 -0.017000
v 0.399215 -0.871736 -0.017000
v 0.397215 -0.871736 -0.045000
v 0.399215 -0.871736 -0.043000
v 0.397215 -0.873736 -0.043000
v 0.411469 -0.201563 -0.015000
v 0.413106 -0.202726 -0.017000
v 0.397215 -0.240054 -0.015000
v 0.399215 -0.240237 -0.017000
v 0.404718 -0.213176 -0.015000
v 0.406533 -0.214032 -0.017000
v 0.399656 -0.226844 -0.015000
v 0.401591 -0.227377 -0.017000
v 0.397215 -0.240054 -0.045000
v 0.399215 -0.240237 -0.043000
v 0.411469 -0.201563 -0.045000
v 0.413106 -0.202726 -0.043000
v 0.399656 -0.226844 -0.045000
v 0.401591 -0.227377 -0.043000
v 0.404718 -0.213176 -0.045000
v 0.406533 -0.214032 -0.043000
vn 0.2588 0.9659 -0.0000
vn 0.1590 0.9873 -0.0000
vn -0.9045 -0.4265 -0.0000
vn -0.8151 -0.5794 -0.0000
vn -0.5991 -0.8007 -0.0000
vn -0.4108 -0.9117 -0.0000
vn -0.0000 1.0000 -0.0000
vn -0.0000 -0.0000 -1.0000
vn -0.0000 -1.0000 -0.0000
vn 0.2047 0.9788 -0.0000
vn -0.9641 -0.2655 -0.0000
vn 0.5991 -0.8007 -0.0000
vn 0.4108 -0.9117 -0.0000
vn -0.9958 -0.0912 -0.0000
vn -1.0000 -0.0000 -0.0000
vn -0.1590 0.9873 -0.0000
vn -0.0576 0.9983 -0.0000
vn 0.8151 -0.5794 -0.0000
vn 0.9045 -0.4265 -0.0000
vn -0.2047 0.9788 -0.0000
vn -0.2588 0.9659 -0.0000
vn -0.0000 -0.0000 1.0000
vn 0.0576 0.9983 -0.0000
vn 0.9641 -0.2655 -0.0000
vn 0.9958 -0.0912 -0.0000
vn 1.0000 -0.0000 -0.0000
vn 0.0118 0.0117 0.9999
vn 0.0082 -0.9999 -0.0082
vn 0.0070 0.0071 -1.0000
vn 0.0071 -1.0000 0.0070
vn -0.9999 0.0082 0.0082
vn -0.0070 0.0071 1.0000
vn -0.0071 -1.0000 -0.0071
vn 0.9999 0.0082 -0.0082
vn -0.0118 0.0117 -0.9999
vn -0.0082 -0.9999 0.0082
vn 0.1029 0.9947 -0.0003
vn 0.0002 0.0007 1.0000
vn 0.2408 0.9706 0.0004
vn -0.5991 -0.8006 -0.0116
vn 0.2409 0.9706 -0.0004
vn -0.0007 -0.0046 -1.0000
vn 0.1591 0.9873 0.0052
vn 0.1029 0.9947 0.0003
vn -0.0001 -0.0000 -1.0000
vn 0.0001 0.0008 -1.0000
vn -0.5991 -0.8006 0.0116
vn -0.0000 0.0001 -1.0000
vn 0.0001 -0.0000 -1.0000
vn -0.0008 -0.0046 1.0000
vn 0.1590 0.9873 -0.0052
vn -0.0000 0.0001 1.0000
vn -0.0022 -0.0007 -1.0000
vn -0.9958 -0.0912 -0.0002
vn -0.9562 -0.2929 0.0007
vn -0.0022 -0.0006 1.0000
vn -0.9958 -0.0913 0.0002
vn -0.0033 -0.0016 -1.0000
vn -0.9045 -0.4265 0.0037
vn -0.0034 -0.0015 1.0000
vn -0.9561 -0.2930 -0.0007
vn -0.8323 -0.5543 0.0010
vn -0.0022 -0.0016 -1.0000
vn -0.8323 -0.5544 -0.0010
vn -0.9045 -0.4265 -0.0037
vn -0.0022 -0.0015 1.0000
vn -0.1029 0.9947 -0.0003
vn 0.0001 -0.0000 1.0000
vn -0.0001 0.0008 1.0000
vn -0.2409 0.9706 0.0004
vn 0.5991 -0.8006 -0.0116
vn -0.0001 -0.0000 1.0000
vn 0.0008 -0.0046 -1.0000
vn -0.2408 0.9706 -0.0004
vn -0.1590 0.9873 0.0052
vn -0.1029 0.9947 0.0003
vn -0.0002 0.0007 -1.0000
vn 0.5991 -0.8006 0.0116
vn 0.0007 -0.0046 1.0000
vn -0.1591 0.9873 -0.0052
vn 0.9958 -0.0913 -0.0002
vn 0.0022 -0.0006 -1.0000
vn 0.9561 -0.2930 0.0007
vn 0.9958 -0.0912 0.0002
vn 0.0022 -0.0007 1.0000
vn 0.0034 -0.0015 -1.0000
vn 0.9045 -0.4265 0.0037
vn 0.9562 -0.2929 -0.0007
vn 0.0033 -0.0016 1.0000
vn 0.8323 -0.5544 0.0010
vn 0.0022 -0.0015 -1.0000
vn 0.8323 -0.5543 -0.0010
vn 0.9045 -0.4265 -0.0037
vn 0.0022 -0.0016 1.0000
vt 0.000000 0.000000
s 1
usemtl Material.002
f 7/1/1 27/1/2 17/1/1
f 44/1/3 50/1/4 54/1/3
f 32/1/5 40/1/4 30/1/5
f 14/1/6 30/1/5 3/1/6
f 6/1/7 65/1/7 15/1/7
f 57/1/8 95/1/8 11/1/8
f 20/1/7 6/1/7 15/1/7
f 1/1/9 84/1/9 80/1/9
f 7/1/10 9/1/10 20/1/10
f 46/1/11 54/1/3 52/1/11
f 76/1/12 61/1/13 56/1/13
f 42/1/14 52/1/11 48/1/14
f 48/1/14 34/1/15 42/1/14
f 71/1/16 67/1/17 70/1/17
f 96/1/18 90/1/19 100/1/19
f 86/1/18 78/1/12 76/1/12
f 37/1/9 1/1/9 35/1/9
f 11/1/8 49/1/8 8/1/8
f 60/1/20 58/1/20 65/1/20
f 58/1/21 74/1/16 71/1/16
f 18/1/22 39/1/22 2/1/22
f 26/1/2 22/1/23 27/1/2
f 100/1/19 92/1/24 98/1/24
f 102/1/22 185/1/22 163/1/22
f 98/1/24 88/1/25 94/1/25
f 81/1/26 94/1/25 88/1/25
f 126/1/2 117/1/1 107/1/1
f 144/1/3 150/1/4 154/1/3
f 132/1/5 140/1/4 130/1/5
f 114/1/6 130/1/5 103/1/6
f 106/1/7 165/1/7 115/1/7
f 157/1/8 195/1/8 111/1/8
f 120/1/7 106/1/7 115/1/7
f 101/1/9 184/1/9 180/1/9
f 107/1/10 109/1/10 120/1/10
f 146/1/11 154/1/3 152/1/11
f 176/1/12 161/1/13 156/1/13
f 142/1/14 152/1/11 148/1/14
f 148/1/14 134/1/15 142/1/14
f 174/1/16 170/1/17 171/1/16
f 196/1/18 190/1/19 200/1/19
f 186/1/18 178/1/12 176/1/12
f 137/1/9 101/1/9 135/1/9
f 111/1/8 149/1/8 108/1/8
f 160/1/20 158/1/20 165/1/20
f 164/1/21 171/1/16 158/1/21
f 118/1/22 139/1/22 102/1/22
f 123/1/23 127/1/2 126/1/2
f 200/1/19 192/1/24 198/1/24
f 198/1/24 188/1/25 194/1/25
f 181/1/26 194/1/25 188/1/25
f 33/1/27 34/1/15 35/1/28
f 36/1/29 37/1/30 38/1/31
f 79/1/32 80/1/33 81/1/34
f 82/1/35 83/1/26 84/1/36
f 133/1/27 134/1/15 135/1/28
f 136/1/29 137/1/30 138/1/31
f 179/1/32 180/1/33 181/1/34
f 182/1/35 183/1/26 184/1/36
f 5/1/22 9/1/37 10/1/22
f 18/1/38 9/1/37 17/1/39
f 4/1/22 30/1/40 29/1/22
f 7/1/41 25/1/42 26/1/43
f 20/1/44 16/1/8 19/1/45
f 20/1/44 8/1/46 7/1/41
f 23/1/23 25/1/42 24/1/8
f 32/1/47 13/1/48 31/1/49
f 28/1/50 17/1/39 27/1/51
f 28/1/50 22/1/23 21/1/22
f 33/1/27 1/1/9 2/1/52
f 37/1/30 11/1/48 12/1/9
f 35/1/28 38/1/31 37/1/30
f 51/1/53 48/1/54 52/1/55
f 45/1/56 42/1/57 41/1/22
f 53/1/58 52/1/55 54/1/59
f 43/1/60 46/1/61 45/1/56
f 53/1/58 50/1/62 49/1/63
f 43/1/60 40/1/64 44/1/65
f 39/1/66 30/1/40 40/1/64
f 49/1/63 32/1/47 31/1/49
f 42/1/57 33/1/27 41/1/22
f 36/1/29 48/1/54 47/1/49
f 60/1/67 5/1/22 59/1/68
f 60/1/67 63/1/69 64/1/70
f 76/1/71 55/1/22 75/1/72
f 72/1/73 58/1/74 71/1/75
f 16/1/8 65/1/76 66/1/8
f 57/1/77 65/1/76 58/1/74
f 72/1/73 70/1/17 69/1/8
f 62/1/48 78/1/78 77/1/48
f 64/1/70 73/1/79 74/1/80
f 67/1/17 73/1/79 68/1/22
f 80/1/33 2/1/52 1/1/9
f 82/1/35 12/1/9 11/1/48
f 81/1/34 84/1/36 83/1/26
f 94/1/81 97/1/82 98/1/83
f 88/1/84 91/1/85 87/1/72
f 98/1/83 99/1/86 100/1/87
f 92/1/88 89/1/89 91/1/85
f 96/1/90 99/1/86 95/1/91
f 86/1/92 89/1/89 90/1/93
f 76/1/71 85/1/94 86/1/92
f 78/1/78 95/1/91 77/1/48
f 79/1/32 88/1/84 87/1/72
f 94/1/81 82/1/35 93/1/48
f 105/1/22 109/1/37 110/1/22
f 118/1/38 109/1/37 117/1/39
f 104/1/22 130/1/40 129/1/22
f 107/1/41 125/1/42 126/1/43
f 120/1/44 116/1/8 119/1/45
f 120/1/44 108/1/46 107/1/41
f 123/1/23 125/1/42 124/1/8
f 132/1/47 113/1/48 131/1/49
f 128/1/50 117/1/39 127/1/51
f 128/1/50 122/1/23 121/1/22
f 133/1/27 101/1/9 102/1/52
f 137/1/30 111/1/48 112/1/9
f 135/1/28 138/1/31 137/1/30
f 151/1/53 148/1/54 152/1/55
f 145/1/56 142/1/57 141/1/52
f 153/1/58 152/1/55 154/1/59
f 143/1/60 146/1/61 145/1/56
f 153/1/58 150/1/62 149/1/63
f 143/1/60 140/1/64 144/1/65
f 139/1/66 130/1/40 140/1/64
f 149/1/63 132/1/47 131/1/49
f 142/1/57 133/1/27 141/1/52
f 136/1/29 148/1/54 147/1/49
f 160/1/67 105/1/22 159/1/68
f 160/1/67 163/1/69 164/1/70
f 176/1/71 155/1/22 175/1/72
f 172/1/73 158/1/74 171/1/75
f 116/1/8 165/1/76 166/1/8
f 157/1/77 165/1/76 158/1/74
f 172/1/73 170/1/17 169/1/8
f 162/1/48 178/1/78 177/1/48
f 164/1/70 173/1/79 174/1/80
f 167/1/17 173/1/79 168/1/22
f 180/1/33 102/1/52 101/1/9
f 182/1/35 112/1/9 111/1/48
f 181/1/34 184/1/36 183/1/26
f 194/1/81 197/1/82 198/1/83
f 188/1/84 191/1/85 187/1/72
f 198/1/83 199/1/86 200/1/87
f 192/1/88 189/1/89 191/1/85
f 196/1/90 199/1/86 195/1/91
f 186/1/92 189/1/89 190/1/93
f 176/1/71 185/1/94 186/1/92
f 178/1/78 195/1/91 177/1/48
f 179/1/32 188/1/84 187/1/72
f 194/1/81 182/1/35 193/1/8
f 2/1/22 85/1/22 63/1/22
f 7/1/1 26/1/2 27/1/2
f 44/1/3 40/1/4 50/1/4
f 32/1/5 50/1/4 40/1/4
f 14/1/6 32/1/5 30/1/5
f 6/1/7 60/1/7 65/1/7
f 11/1/8 16/1/8 66/1/8
f 57/1/8 72/1/8 69/1/8
f 11/1/8 66/1/8 57/1/8
f 93/1/8 82/1/8 11/1/8
f 97/1/8 93/1/8 11/1/8
f 57/1/8 69/1/8 62/1/8
f 57/1/8 62/1/8 77/1/8
f 99/1/8 97/1/8 11/1/8
f 57/1/8 77/1/8 95/1/8
f 95/1/8 99/1/8 11/1/8
f 20/1/7 9/1/7 6/1/7
f 1/1/9 12/1/9 84/1/9
f 7/1/10 17/1/10 9/1/10
f 46/1/11 44/1/3 54/1/3
f 76/1/12 78/1/12 61/1/13
f 42/1/14 46/1/11 52/1/11
f 48/1/14 38/1/15 34/1/15
f 71/1/16 74/1/16 67/1/17
f 96/1/18 86/1/18 90/1/19
f 86/1/18 96/1/18 78/1/12
f 37/1/9 12/1/9 1/1/9
f 19/1/8 16/1/8 11/1/8
f 11/1/8 36/1/8 47/1/8
f 11/1/8 47/1/8 51/1/8
f 8/1/8 19/1/8 11/1/8
f 24/1/8 25/1/8 8/1/8
f 31/1/8 13/1/8 24/1/8
f 49/1/8 31/1/8 24/1/8
f 11/1/8 51/1/8 53/1/8
f 49/1/8 24/1/8 8/1/8
f 11/1/8 53/1/8 49/1/8
f 60/1/20 64/1/20 58/1/20
f 58/1/21 64/1/21 74/1/16
f 2/1/22 5/1/22 10/1/22
f 18/1/22 28/1/22 21/1/22
f 2/1/22 10/1/22 18/1/22
f 41/1/22 33/1/22 2/1/22
f 45/1/22 41/1/22 2/1/22
f 18/1/22 21/1/22 4/1/22
f 18/1/22 4/1/22 29/1/22
f 43/1/22 45/1/22 2/1/22
f 18/1/22 29/1/22 39/1/22
f 39/1/22 43/1/22 2/1/22
f 26/1/2 23/1/23 22/1/23
f 100/1/19 90/1/19 92/1/24
f 159/1/22 105/1/22 102/1/22
f 102/1/22 179/1/22 187/1/22
f 102/1/22 187/1/22 191/1/22
f 163/1/22 159/1/22 102/1/22
f 168/1/22 173/1/22 163/1/22
f 175/1/22 155/1/22 168/1/22
f 185/1/22 175/1/22 168/1/22
f 102/1/22 191/1/22 189/1/22
f 185/1/22 168/1/22 163/1/22
f 102/1/22 189/1/22 185/1/22
f 98/1/24 92/1/24 88/1/25
f 81/1/26 83/1/26 94/1/25
f 126/1/2 127/1/2 117/1/1
f 144/1/3 140/1/4 150/1/4
f 132/1/5 150/1/4 140/1/4
f 114/1/6 132/1/5 130/1/5
f 106/1/7 160/1/7 165/1/7
f 111/1/8 116/1/8 166/1/8
f 157/1/8 172/1/8 169/1/8
f 111/1/8 166/1/8 157/1/8
f 193/1/8 182/1/8 111/1/8
f 197/1/8 193/1/8 111/1/8
f 157/1/8 169/1/8 162/1/8
f 157/1/8 162/1/8 177/1/8
f 199/1/8 197/1/8 111/1/8
f 157/1/8 177/1/8 195/1/8
f 195/1/8 199/1/8 111/1/8
f 120/1/7 109/1/7 106/1/7
f 101/1/9 112/1/9 184/1/9
f 107/1/10 117/1/10 109/1/10
f 146/1/11 144/1/3 154/1/3
f 176/1/12 178/1/12 161/1/13
f 142/1/14 146/1/11 152/1/11
f 148/1/14 138/1/15 134/1/15
f 174/1/16 167/1/17 170/1/17
f 196/1/18 186/1/18 190/1/19
f 186/1/18 196/1/18 178/1/12
f 137/1/9 112/1/9 101/1/9
f 119/1/8 116/1/8 111/1/8
f 111/1/8 136/1/8 147/1/8
f 111/1/8 147/1/8 151/1/8
f 108/1/8 119/1/8 111/1/8
f 124/1/8 125/1/8 108/1/8
f 131/1/8 113/1/8 124/1/8
f 149/1/8 131/1/8 124/1/8
f 111/1/8 151/1/8 153/1/8
f 149/1/8 124/1/8 108/1/8
f 111/1/8 153/1/8 149/1/8
f 160/1/20 164/1/20 158/1/20
f 164/1/21 174/1/16 171/1/16
f 102/1/22 105/1/22 110/1/22
f 118/1/22 128/1/22 121/1/22
f 102/1/22 110/1/22 118/1/22
f 141/1/22 133/1/22 102/1/22
f 145/1/22 141/1/22 102/1/22
f 118/1/22 121/1/22 104/1/22
f 118/1/22 104/1/22 129/1/22
f 143/1/22 145/1/22 102/1/22
f 118/1/22 129/1/22 139/1/22
f 139/1/22 143/1/22 102/1/22
f 123/1/23 122/1/23 127/1/2
f 200/1/19 190/1/19 192/1/24
f 198/1/24 192/1/24 188/1/25
f 181/1/26 183/1/26 194/1/25
f 5/1/22 6/1/7 9/1/37
f 18/1/38 10/1/22 9/1/37
f 4/1/22 3/1/6 30/1/40
f 7/1/41 8/1/46 25/1/42
f 20/1/44 15/1/7 16/1/8
f 20/1/44 19/1/45 8/1/46
f 23/1/23 26/1/43 25/1/42
f 32/1/47 14/1/6 13/1/48
f 28/1/50 18/1/38 17/1/39
f 28/1/50 27/1/51 22/1/23
f 33/1/27 35/1/28 1/1/9
f 37/1/30 36/1/29 11/1/48
f 35/1/28 34/1/15 38/1/31
f 51/1/53 47/1/49 48/1/54
f 45/1/56 46/1/61 42/1/57
f 53/1/58 51/1/53 52/1/55
f 43/1/60 44/1/65 46/1/61
f 53/1/58 54/1/59 50/1/62
f 43/1/60 39/1/66 40/1/64
f 39/1/66 29/1/22 30/1/40
f 49/1/63 50/1/62 32/1/47
f 42/1/57 34/1/15 33/1/27
f 36/1/29 38/1/31 48/1/54
f 60/1/67 6/1/7 5/1/22
f 60/1/67 59/1/68 63/1/69
f 76/1/71 56/1/13 55/1/22
f 72/1/73 57/1/77 58/1/74
f 16/1/8 15/1/7 65/1/76
f 57/1/77 66/1/8 65/1/76
f 72/1/73 71/1/75 70/1/17
f 62/1/48 61/1/13 78/1/78
f 64/1/70 63/1/69 73/1/79
f 67/1/17 74/1/80 73/1/79
f 80/1/33 79/1/32 2/1/52
f 82/1/35 84/1/36 12/1/9
f 81/1/34 80/1/33 84/1/36
f 94/1/81 93/1/48 97/1/82
f 88/1/84 92/1/88 91/1/85
f 98/1/83 97/1/82 99/1/86
f 92/1/88 90/1/93 89/1/89
f 96/1/90 100/1/87 99/1/86
f 86/1/92 85/1/94 89/1/89
f 76/1/71 75/1/72 85/1/94
f 78/1/78 96/1/90 95/1/91
f 79/1/32 81/1/34 88/1/84
f 94/1/81 83/1/26 82/1/35
f 105/1/22 106/1/7 109/1/37
f 118/1/38 110/1/22 109/1/37
f 104/1/22 103/1/6 130/1/40
f 107/1/41 108/1/46 125/1/42
f 120/1/44 115/1/7 116/1/8
f 120/1/44 119/1/45 108/1/46
f 123/1/23 126/1/43 125/1/42
f 132/1/47 114/1/6 113/1/48
f 128/1/50 118/1/38 117/1/39
f 128/1/50 127/1/51 122/1/23
f 133/1/27 135/1/28 101/1/9
f 137/1/30 136/1/29 111/1/48
f 135/1/28 134/1/15 138/1/31
f 151/1/53 147/1/49 148/1/54
f 145/1/56 146/1/61 142/1/57
f 153/1/58 151/1/53 152/1/55
f 143/1/60 144/1/65 146/1/61
f 153/1/58 154/1/59 150/1/62
f 143/1/60 139/1/66 140/1/64
f 139/1/66 129/1/22 130/1/40
f 149/1/63 150/1/62 132/1/47
f 142/1/57 134/1/15 133/1/27
f 136/1/29 138/1/31 148/1/54
f 160/1/67 106/1/7 105/1/22
f 160/1/67 159/1/68 163/1/69
f 176/1/71 156/1/13 155/1/22
f 172/1/73 157/1/77 158/1/74
f 116/1/8 115/1/7 165/1/76
f 157/1/77 166/1/8 165/1/76
f 172/1/73 171/1/75 170/1/17
f 162/1/48 161/1/13 178/1/78
f 164/1/70 163/1/69 173/1/79
f 167/1/17 174/1/80 173/1/79
f 180/1/33 179/1/32 102/1/52
f 182/1/35 184/1/36 112/1/9
f 181/1/34 180/1/33 184/1/36
f 194/1/81 193/1/8 197/1/82
f 188/1/84 192/1/88 191/1/85
f 198/1/83 197/1/82 199/1/86
f 192/1/88 190/1/93 189/1/89
f 196/1/90 200/1/87 199/1/86
f 186/1/92 185/1/94 189/1/89
f 176/1/71 175/1/72 185/1/94
f 178/1/78 196/1/90 195/1/91
f 179/1/32 181/1/34 188/1/84
f 194/1/81 183/1/26 182/1/35
f 59/1/22 5/1/22 2/1/22
f 2/1/22 79/1/22 87/1/22
f 2/1/22 87/1/22 91/1/22
f 63/1/22 59/1/22 2/1/22
f 68/1/22 73/1/22 63/1/22
f 75/1/22 55/1/22 68/1/22
f 85/1/22 75/1/22 68/1/22
f 2/1/22 91/1/22 89/1/22
f 85/1/22 68/1/22 63/1/22
f 2/1/22 89/1/22 85/1/22
