# Blender 3.6.1
# www.blender.org
o ModernConnectorTop
v 0.458139 0.055247 -0.015000
v 0.111903 -0.069752 -0.015000
v 0.582812 0.055247 -0.015000
v 0.605539 -0.000607 -0.015000
v -0.458139 0.055247 -0.015000
v -0.111903 -0.069752 -0.015000
v -0.582812 0.055247 -0.015000
v -0.605539 -0.000607 -0.015000
v 0.388953 -0.256980 -0.015000
v 0.438914 -0.155437 -0.015000
v 0.391602 -0.236406 -0.015000
v 0.399207 -0.213779 -0.015000
v 0.410786 -0.191315 -0.015000
v 0.424579 -0.171211 -0.015000
v -0.434399 -0.160167 -0.015000
v 0.458139 0.055247 0.015000
v 0.111903 -0.069752 0.015000
v 0.582812 0.055247 0.015000
v 0.605539 -0.000607 0.015000
v -0.458139 0.055247 0.015000
v -0.111903 -0.069752 0.015000
v -0.582812 0.055247 0.015000
v -0.605539 -0.000607 0.015000
v 0.388953 -0.256980 0.015000
v 0.438914 -0.155437 0.015000
v 0.391602 -0.236406 0.015000
v 0.399207 -0.213779 0.015000
v 0.410786 -0.191315 0.015000
v 0.424579 -0.171211 0.015000
v -0.388953 -0.256980 0.015000
v -0.388953 -0.266980 0.015000
v -0.388953 -0.266980 -0.015000
v 0.388953 -0.266980 -0.015000
v -0.434399 -0.160167 0.015000
v -0.420389 -0.174519 0.015000
v -0.406730 -0.193009 0.015000
v -0.396053 -0.215755 0.015000
v -0.390753 -0.237652 0.015000
v -0.388953 -0.256980 -0.015000
v -0.390753 -0.237652 -0.015000
v -0.396053 -0.215755 -0.015000
v -0.406730 -0.193009 -0.015000
v -0.420389 -0.174519 -0.015000
v 0.388953 -0.266980 0.015000
v -0.388953 -0.877529 0.015000
v 0.388953 -0.877529 0.015000
v -0.388953 -0.877529 -0.015000
v 0.388953 -0.877529 -0.015000
v 0.458139 0.055247 0.018000
v 0.111903 -0.069752 0.018000
v 0.582812 0.055247 0.018000
v 0.605539 -0.000607 0.018000
v -0.458139 0.055247 0.018000
v -0.111903 -0.069752 0.018000
v -0.582812 0.055247 0.018000
v -0.605539 -0.000607 0.018000
v 0.388953 -0.256980 0.018000
v 0.438914 -0.155437 0.018000
v 0.391602 -0.236406 0.018000
v 0.399207 -0.213779 0.018000
v 0.410786 -0.191315 0.018000
v 0.424579 -0.171211 0.018000
v -0.434399 -0.160167 0.018000
v 0.458139 0.055247 0.048000
v 0.111903 -0.069752 0.048000
v 0.582812 0.055247 0.048000
v 0.605539 -0.000607 0.048000
v -0.458139 0.055247 0.048000
v -0.111903 -0.069752 0.048000
v -0.582812 0.055247 0.048000
v -0.605539 -0.000607 0.048000
v 0.388953 -0.256980 0.048000
v 0.438914 -0.155437 0.048000
v 0.391602 -0.236406 0.048000
v 0.399207 -0.213779 0.048000
v 0.410786 -0.191315 0.048000
v 0.424579 -0.171211 0.048000
v -0.388953 -0.256980 0.048000
v -0.388953 -0.266980 0.048000
v -0.388953 -0.266980 0.018000
v 0.388953 -0.266980 0.018000
v -0.434399 -0.160167 0.048000
v -0.420389 -0.174519 0.048000
v -0.406730 -0.193009 0.048000
v -0.396053 -0.215755 0.048000
v -0.390753 -0.237652 0.048000
v -0.388953 -0.256980 0.018000
v -0.390753 -0.237652 0.018000
v -0.396053 -0.215755 0.018000
v -0.406730 -0.193009 0.018000
v -0.420389 -0.174519 0.018000
v 0.388953 -0.266980 0.048000
v -0.388953 -0.877529 0.048000
v 0.388953 -0.877529 0.048000
v -0.388953 -0.877529 0.018000
v 0.388953 -0.877529 0.018000
vn 0.9980 -0.0640 -0.0000
vn 1.0000 -0.0000 -0.0000
vn -0.9989 -0.0464 -0.0000
vn -1.0000 -0.0000 -0.0000
vn -0.3396 0.9406 -0.0000
vn 0.9263 0.3769 -0.0000
vn -0.0000 1.0000 -0.0000
vn 0.3396 0.9406 -0.0000
vn -0.9263 0.3769 -0.0000
vn -0.6990 -0.7152 -0.0000
vn -0.6819 -0.7314 -0.0000
vn 0.9745 -0.2242 -0.0000
vn 0.9210 -0.3895 -0.0000
vn 0.8584 -0.5130 -0.0000
vn 0.7841 -0.6206 -0.0000
vn 0.7110 -0.7032 -0.0000
vn 0.6807 -0.7326 -0.0000
vn -0.9864 -0.1644 -0.0000
vn -0.9434 -0.3318 -0.0000
vn -0.8590 -0.5121 -0.0000
vn -0.7617 -0.6479 -0.0000
vn -0.0000 -0.0000 -1.0000
vn -0.0000 -0.0000 1.0000
vn -0.0000 -1.0000 -0.0000
vt 0.000000 0.000000
s 1
f 24/1/1 33/1/2 9/1/1
f 39/1/3 31/1/4 30/1/3
f 2/1/5 16/1/5 1/1/5
f 3/1/6 19/1/6 4/1/6
f 1/1/7 18/1/7 3/1/7
f 5/1/8 21/1/8 6/1/8
f 7/1/9 23/1/9 22/1/9
f 7/1/7 20/1/7 5/1/7
f 6/1/7 17/1/7 2/1/7
f 15/1/10 23/1/11 8/1/11
f 11/1/12 24/1/1 9/1/1
f 12/1/13 26/1/12 11/1/12
f 12/1/13 28/1/14 27/1/13
f 14/1/15 28/1/14 13/1/14
f 10/1/16 29/1/15 14/1/15
f 4/1/17 25/1/16 10/1/16
f 30/1/3 40/1/18 39/1/3
f 38/1/18 41/1/19 40/1/18
f 37/1/19 42/1/20 41/1/19
f 36/1/20 43/1/21 42/1/20
f 35/1/21 15/1/10 43/1/21
f 40/1/22 41/1/22 6/1/22
f 17/1/23 26/1/23 27/1/23
f 48/1/22 32/1/22 33/1/22
f 31/1/23 46/1/23 44/1/23
f 47/1/4 31/1/4 32/1/4
f 44/1/2 48/1/2 33/1/2
f 48/1/24 45/1/24 47/1/24
f 72/1/1 81/1/2 57/1/1
f 87/1/3 79/1/4 78/1/3
f 50/1/5 64/1/5 49/1/5
f 51/1/6 67/1/6 52/1/6
f 49/1/7 66/1/7 51/1/7
f 53/1/8 69/1/8 54/1/8
f 55/1/9 71/1/9 70/1/9
f 55/1/7 68/1/7 53/1/7
f 54/1/7 65/1/7 50/1/7
f 63/1/10 71/1/11 56/1/11
f 59/1/12 72/1/1 57/1/1
f 60/1/13 74/1/12 59/1/12
f 60/1/13 76/1/14 75/1/13
f 62/1/15 76/1/14 61/1/14
f 58/1/16 77/1/15 62/1/15
f 52/1/17 73/1/16 58/1/16
f 78/1/3 88/1/18 87/1/3
f 86/1/18 89/1/19 88/1/18
f 85/1/19 90/1/20 89/1/19
f 84/1/20 91/1/21 90/1/20
f 83/1/21 63/1/10 91/1/21
f 88/1/22 89/1/22 54/1/22
f 65/1/23 74/1/23 75/1/23
f 96/1/22 80/1/22 81/1/22
f 79/1/23 94/1/23 92/1/23
f 95/1/4 79/1/4 80/1/4
f 92/1/2 96/1/2 81/1/2
f 96/1/24 93/1/24 95/1/24
f 24/1/1 44/1/2 33/1/2
f 39/1/3 32/1/4 31/1/4
f 2/1/5 17/1/5 16/1/5
f 3/1/6 18/1/6 19/1/6
f 1/1/7 16/1/7 18/1/7
f 5/1/8 20/1/8 21/1/8
f 7/1/9 8/1/9 23/1/9
f 7/1/7 22/1/7 20/1/7
f 6/1/7 21/1/7 17/1/7
f 15/1/10 34/1/10 23/1/11
f 11/1/12 26/1/12 24/1/1
f 12/1/13 27/1/13 26/1/12
f 12/1/13 13/1/14 28/1/14
f 14/1/15 29/1/15 28/1/14
f 10/1/16 25/1/16 29/1/15
f 4/1/17 19/1/17 25/1/16
f 30/1/3 38/1/18 40/1/18
f 38/1/18 37/1/19 41/1/19
f 37/1/19 36/1/20 42/1/20
f 36/1/20 35/1/21 43/1/21
f 35/1/21 34/1/10 15/1/10
f 2/1/22 1/1/22 3/1/22
f 3/1/22 4/1/22 10/1/22
f 3/1/22 10/1/22 14/1/22
f 2/1/22 3/1/22 14/1/22
f 2/1/22 14/1/22 13/1/22
f 7/1/22 5/1/22 6/1/22
f 6/1/22 2/1/22 13/1/22
f 6/1/22 13/1/22 12/1/22
f 8/1/22 7/1/22 6/1/22
f 15/1/22 8/1/22 6/1/22
f 6/1/22 12/1/22 11/1/22
f 9/1/22 33/1/22 32/1/22
f 6/1/22 11/1/22 9/1/22
f 43/1/22 15/1/22 6/1/22
f 42/1/22 43/1/22 6/1/22
f 6/1/22 9/1/22 32/1/22
f 6/1/22 32/1/22 39/1/22
f 41/1/22 42/1/22 6/1/22
f 6/1/22 39/1/22 40/1/22
f 21/1/23 20/1/23 22/1/23
f 22/1/23 23/1/23 34/1/23
f 22/1/23 34/1/23 35/1/23
f 21/1/23 22/1/23 35/1/23
f 21/1/23 35/1/23 36/1/23
f 18/1/23 16/1/23 17/1/23
f 17/1/23 21/1/23 36/1/23
f 17/1/23 36/1/23 37/1/23
f 19/1/23 18/1/23 17/1/23
f 25/1/23 19/1/23 17/1/23
f 17/1/23 37/1/23 38/1/23
f 30/1/23 31/1/23 44/1/23
f 17/1/23 38/1/23 30/1/23
f 29/1/23 25/1/23 17/1/23
f 28/1/23 29/1/23 17/1/23
f 17/1/23 30/1/23 44/1/23
f 17/1/23 44/1/23 24/1/23
f 27/1/23 28/1/23 17/1/23
f 17/1/23 24/1/23 26/1/23
f 48/1/22 47/1/22 32/1/22
f 31/1/23 45/1/23 46/1/23
f 47/1/4 45/1/4 31/1/4
f 44/1/2 46/1/2 48/1/2
f 48/1/24 46/1/24 45/1/24
f 72/1/1 92/1/2 81/1/2
f 87/1/3 80/1/4 79/1/4
f 50/1/5 65/1/5 64/1/5
f 51/1/6 66/1/6 67/1/6
f 49/1/7 64/1/7 66/1/7
f 53/1/8 68/1/8 69/1/8
f 55/1/9 56/1/9 71/1/9
f 55/1/7 70/1/7 68/1/7
f 54/1/7 69/1/7 65/1/7
f 63/1/10 82/1/10 71/1/11
f 59/1/12 74/1/12 72/1/1
f 60/1/13 75/1/13 74/1/12
f 60/1/13 61/1/14 76/1/14
f 62/1/15 77/1/15 76/1/14
f 58/1/16 73/1/16 77/1/15
f 52/1/17 67/1/17 73/1/16
f 78/1/3 86/1/18 88/1/18
f 86/1/18 85/1/19 89/1/19
f 85/1/19 84/1/20 90/1/20
f 84/1/20 83/1/21 91/1/21
f 83/1/21 82/1/10 63/1/10
f 50/1/22 49/1/22 51/1/22
f 51/1/22 52/1/22 58/1/22
f 51/1/22 58/1/22 62/1/22
f 50/1/22 51/1/22 62/1/22
f 50/1/22 62/1/22 61/1/22
f 55/1/22 53/1/22 54/1/22
f 54/1/22 50/1/22 61/1/22
f 54/1/22 61/1/22 60/1/22
f 56/1/22 55/1/22 54/1/22
f 63/1/22 56/1/22 54/1/22
f 54/1/22 60/1/22 59/1/22
f 57/1/22 81/1/22 80/1/22
f 54/1/22 59/1/22 57/1/22
f 91/1/22 63/1/22 54/1/22
f 90/1/22 91/1/22 54/1/22
f 54/1/22 57/1/22 80/1/22
f 54/1/22 80/1/22 87/1/22
f 89/1/22 90/1/22 54/1/22
f 54/1/22 87/1/22 88/1/22
f 69/1/23 68/1/23 70/1/23
f 70/1/23 71/1/23 82/1/23
f 70/1/23 82/1/23 83/1/23
f 69/1/23 70/1/23 83/1/23
f 69/1/23 83/1/23 84/1/23
f 66/1/23 64/1/23 65/1/23
f 65/1/23 69/1/23 84/1/23
f 65/1/23 84/1/23 85/1/23
f 67/1/23 66/1/23 65/1/23
f 73/1/23 67/1/23 65/1/23
f 65/1/23 85/1/23 86/1/23
f 78/1/23 79/1/23 92/1/23
f 65/1/23 86/1/23 78/1/23
f 77/1/23 73/1/23 65/1/23
f 76/1/23 77/1/23 65/1/23
f 65/1/23 78/1/23 92/1/23
f 65/1/23 92/1/23 72/1/23
f 75/1/23 76/1/23 65/1/23
f 65/1/23 72/1/23 74/1/23
f 96/1/22 95/1/22 80/1/22
f 79/1/23 93/1/23 94/1/23
f 95/1/4 93/1/4 79/1/4
f 92/1/2 94/1/2 96/1/2
f 96/1/24 94/1/24 93/1/24
