# Blender 3.6.1
# www.blender.org
o Plane
v 0.458139 0.055247 -0.020000
v -0.458139 0.055247 -0.020000
v 0.111903 -0.069752 -0.020000
v -0.111903 -0.069752 -0.020000
v 0.000000 -0.576497 -0.020000
v -0.582812 0.055247 -0.020000
v -0.605539 -0.000607 -0.020000
v 0.582812 0.055247 -0.020000
v 0.605539 -0.000607 -0.020000
v 0.458139 0.055247 0.020000
v -0.458139 0.055247 0.020000
v 0.111903 -0.069752 0.020000
v -0.111903 -0.069752 0.020000
v -0.000000 -0.576497 0.020000
v -0.582812 0.055247 0.020000
v -0.605539 -0.000607 0.020000
v 0.582812 0.055247 0.020000
v 0.605539 -0.000607 0.020000
vn -0.0000 -0.0000 -1.0000
vn -0.0000 -0.0000 1.0000
vn 0.3396 0.9406 -0.0000
vn -0.3396 0.9406 -0.0000
vn -0.0000 1.0000 -0.0000
vn -0.9263 0.3769 -0.0000
vn 0.9263 0.3769 -0.0000
vn -0.6891 -0.7246 -0.0000
vn 0.6891 -0.7246 -0.0000
vt 0.000000 0.000000
s 1
f 4/1/1 3/1/1 5/1/1
f 13/1/2 14/1/2 12/1/2
f 2/1/3 13/1/3 4/1/3
f 3/1/4 10/1/4 1/1/4
f 4/1/5 12/1/5 3/1/5
f 7/1/6 15/1/6 6/1/6
f 8/1/7 18/1/7 9/1/7
f 6/1/5 11/1/5 2/1/5
f 5/1/8 16/1/8 7/1/8
f 1/1/5 17/1/5 8/1/5
f 9/1/9 14/1/9 5/1/9
f 3/1/1 1/1/1 8/1/1
f 8/1/1 9/1/1 5/1/1
f 5/1/1 7/1/1 6/1/1
f 6/1/1 2/1/1 4/1/1
f 3/1/1 8/1/1 5/1/1
f 5/1/1 6/1/1 4/1/1
f 13/1/2 11/1/2 15/1/2
f 15/1/2 16/1/2 14/1/2
f 14/1/2 18/1/2 17/1/2
f 17/1/2 10/1/2 12/1/2
f 13/1/2 15/1/2 14/1/2
f 14/1/2 17/1/2 12/1/2
f 2/1/3 11/1/3 13/1/3
f 3/1/4 12/1/4 10/1/4
f 4/1/5 13/1/5 12/1/5
f 7/1/6 16/1/6 15/1/6
f 8/1/7 17/1/7 18/1/7
f 6/1/5 15/1/5 11/1/5
f 5/1/8 14/1/8 16/1/8
f 1/1/5 10/1/5 17/1/5
f 9/1/9 18/1/9 14/1/9
