# Blender 4.1.0
# www.blender.org
mtllib vekoma_mk1101_mid.mtl
o VekomaMid
v 0.410000 -0.080000 0.075000
v 0.410000 0.012000 0.075000
v 0.410000 -0.080000 0.082000
v 0.184365 -0.413074 0.082000
v 0.184365 -0.413074 0.075000
v 0.410000 -0.080000 -0.075000
v 0.410000 0.012000 -0.075000
v 0.410000 -0.080000 -0.082000
v 0.184365 -0.413074 -0.082000
v 0.184365 -0.413074 -0.075000
v 0.410000 0.012000 0.075000
v 0.410000 0.005000 0.082000
v 0.410000 0.005000 -0.082000
v 0.410000 0.012000 -0.075000
v -0.410000 -0.080000 0.075000
v -0.410000 0.012000 0.075000
v -0.410000 -0.080000 0.082000
v -0.184365 -0.413074 0.082000
v -0.184365 -0.413074 0.075000
v -0.410000 -0.080000 -0.075000
v -0.410000 0.012000 -0.075000
v -0.410000 -0.080000 -0.082000
v -0.184365 -0.413074 -0.082000
v -0.184365 -0.413074 -0.075000
v -0.410000 0.012000 0.075000
v -0.410000 0.005000 0.082000
v -0.410000 0.005000 -0.082000
v -0.410000 0.012000 -0.075000
v 0.409000 -0.032328 -0.075000
v 0.147155 -0.415856 -0.075000
v -0.153675 -0.415856 -0.075000
v -0.409000 -0.032328 -0.075000
v 0.409000 -0.032328 0.075000
v 0.147155 -0.415856 0.075000
v -0.153675 -0.415856 0.075000
v -0.409000 -0.032328 0.075000
v -0.550000 -0.034393 -0.075000
v -0.550000 -0.045000 -0.064393
v -0.550000 0.045000 -0.064393
v -0.550000 0.034393 -0.075000
v 0.550000 -0.045000 -0.064393
v 0.550000 -0.034393 -0.075000
v 0.550000 0.034393 -0.075000
v 0.550000 0.045000 -0.064393
v -0.550000 -0.045000 0.064393
v -0.550000 -0.034393 0.075000
v -0.550000 0.034393 0.075000
v -0.550000 0.045000 0.064393
v 0.550000 -0.034393 0.075000
v 0.550000 -0.045000 0.064393
v 0.550000 0.045000 0.064393
v 0.550000 0.034393 0.075000
vn -0.0000 -0.0000 -1.0000
vn -0.0000 -0.0010 -1.0000
vn -0.0000 0.7071 -0.7071
vn 1.0000 -0.0000 -0.0000
vn -0.0000 -0.0000 1.0000
vn 0.8279 -0.5609 -0.0000
vn -0.0000 1.0000 -0.0000
vn -1.0000 -0.0000 -0.0000
vn -0.8279 -0.5609 -0.0000
vn -0.0000 -1.0000 -0.0000
vn 0.8259 -0.5639 -0.0000
vn -0.8324 -0.5542 -0.0000
vn -0.0000 -1.0000 0.0010
vn -0.0000 0.0010 -1.0000
vn -0.0004 1.0000 0.0010
vn 0.0005 -0.0010 -1.0000
vn -0.0000 1.0000 0.0010
vn -0.0000 0.0010 1.0000
vn -0.0000 -1.0000 -0.0010
vn -0.0004 -0.0010 1.0000
vn 0.0004 1.0000 -0.0010
vn -0.0000 -0.0010 1.0000
vn -0.0000 1.0000 -0.0010
vn 0.0001 -0.0011 1.0000
vn -0.0001 -0.0010 -1.0000
vn 0.0004 -0.0011 -1.0000
vn 0.9239 -0.3827 -0.0000
vn -0.7071 0.7071 -0.0000
vn -0.0000 -0.0000 -0.0000
vn -0.9239 -0.3827 -0.0000
vn 0.7071 0.7071 -0.0000
vn 0.0004 -0.0010 -1.0000
vn -0.0005 -0.0010 1.0000
vn -0.0001 1.0000 -0.0010
vn 0.0004 1.0000 -0.0011
vn -0.0000 -0.0011 1.0000
vt 0.541484 0.474809
vt 0.492266 0.474809
vt 0.541484 0.000000
vt 0.887544 0.473651
vt 0.883490 0.948460
vt 0.883490 0.473651
vt 0.694339 0.518877
vt 0.694339 0.474809
vt 0.698392 0.478162
vt 0.053271 0.000000
vt 0.246133 0.130651
vt 0.246133 0.344158
vt 0.698392 0.751826
vt 0.694339 0.751826
vt 0.049218 0.474809
vt 0.242080 0.605460
vt 0.049218 0.949618
vt 0.698392 0.478162
vt 0.702446 0.474809
vt 0.702446 0.518877
vt 0.702446 0.751826
vt 0.698392 0.518877
vt 0.246133 0.474809
vt 0.299404 0.474809
vt 0.246133 0.474809
vt 0.246133 0.000000
vt 0.690286 0.478171
vt 0.694339 0.518993
vt 0.694339 0.751942
vt 0.690286 0.518993
vt 0.686233 0.518993
vt 0.686233 0.474809
vt 0.690286 0.478171
vt 0.690286 0.751942
vt 0.686232 0.751942
vt 0.808918 0.473651
vt 0.883490 0.831518
vt 0.808918 0.831518
vt 0.242080 0.796843
vt 0.464156 0.474809
vt 0.464156 0.948460
vt 0.464156 0.626427
vt 0.686232 0.948460
vt 0.464156 0.800618
vt 0.901915 0.636939
vt 0.941745 0.000000
vt 0.941745 0.636939
vt 0.808918 0.636939
vt 0.734346 -0.000000
vt 0.808918 -0.000000
vt 0.993858 0.636939
vt 0.954028 0.000000
vt 0.993858 0.000000
vt 0.722063 0.636939
vt 0.808918 0.905836
vt 0.722063 0.905836
vt 0.982629 0.903722
vt 0.895774 0.636939
vt 0.982629 0.636939
vt 0.895773 0.473651
vt 0.808918 -0.000000
vt 0.895774 -0.000000
vt 0.947887 0.636939
vt 0.947887 0.000000
vt 0.895774 -0.000000
vt 0.895774 0.636939
vt 1.000000 0.636939
vt 0.954028 0.636939
vt 0.947887 0.000000
vt 0.891720 0.948460
vt 0.895774 0.473651
vt 0.895773 0.948460
vt 0.492266 0.000000
vt 0.734346 0.130651
vt 0.734346 0.344158
vt 0.887544 0.948460
vt 0.698392 0.518877
vt 0.053271 0.474809
vt -0.000000 0.474809
vt 0.000000 0.000000
vt 0.242080 0.818968
vt -0.000000 0.949618
vt 0.000000 0.474809
vt 0.698392 0.751826
vt 0.299404 0.000000
vt 0.492266 0.130651
vt 0.492266 0.344158
vt 0.690286 0.751942
vt 0.690286 0.518993
vt 0.883490 0.473651
vt 0.242080 0.622651
vt 0.686232 0.474809
vt 0.901915 -0.000000
vt 0.734346 0.636939
vt 0.808918 0.636939
vt 0.895774 0.903722
vt 0.808918 0.473651
vt 1.000000 0.000000
vt 0.891720 0.473651
s 0
usemtl Material.001
f 22/1/1 27/2/1 8/3/1
f 13/4/2 28/5/3 14/6/3
f 1/7/4 2/8/4 12/9/4
f 20/10/5 24/11/5 10/12/5
f 1/7/6 4/13/6 5/14/6
f 17/15/5 18/16/5 3/17/5
f 13/18/4 14/19/4 6/20/4
f 10/21/6 8/22/6 6/20/6
f 11/23/7 16/23/7 25/23/7
f 14/23/7 21/23/7 7/23/7
f 15/24/1 16/25/1 2/26/1
f 26/27/8 25/8/8 15/28/8
f 19/29/9 17/30/9 15/28/9
f 20/31/8 21/32/8 27/33/8
f 20/31/9 23/34/9 24/35/9
f 41/36/10 45/37/10 38/38/10
f 30/39/1 32/40/1 29/41/1
f 34/42/5 36/43/5 35/44/5
f 40/45/1 42/46/1 37/47/1
f 39/48/7 51/49/7 44/50/7
f 49/51/5 47/52/5 46/53/5
f 29/54/11 34/55/11 30/56/11
f 31/57/12 36/58/12 32/59/12
f 32/60/7 33/61/7 29/62/7
f 38/63/13 42/46/14 41/64/13
f 44/65/15 40/45/16 39/66/17
f 46/53/18 50/67/19 49/51/18
f 52/68/20 48/69/21 47/52/22
f 11/70/23 26/71/24 12/72/20
f 27/2/1 13/73/1 8/3/1
f 8/3/1 9/74/1 23/75/1
f 23/75/1 22/1/1 8/3/1
f 13/4/25 27/76/26 28/5/3
f 12/9/4 3/77/4 1/7/4
f 2/8/10 11/8/27 12/9/28
f 10/12/5 6/78/5 20/10/5
f 6/78/5 7/79/5 20/10/5
f 7/79/5 21/80/5 20/10/5
f 1/7/6 3/77/6 4/13/6
f 18/16/5 4/81/5 3/17/5
f 3/17/5 12/82/5 26/83/5
f 26/83/5 17/15/5 3/17/5
f 6/20/4 8/22/4 13/18/4
f 14/19/29 7/19/29 6/20/29
f 10/21/6 9/84/6 8/22/6
f 11/23/7 2/23/7 16/23/7
f 14/23/7 28/23/7 21/23/7
f 2/26/1 1/85/1 15/24/1
f 1/85/1 5/86/1 15/24/1
f 5/86/1 19/87/1 15/24/1
f 15/28/8 17/30/8 26/27/8
f 25/8/29 16/8/29 15/28/29
f 19/29/9 18/88/9 17/30/9
f 27/33/8 22/89/8 20/31/8
f 21/32/10 28/32/30 27/33/31
f 20/31/9 22/89/9 23/34/9
f 41/36/10 50/90/10 45/37/10
f 30/39/1 31/91/1 32/40/1
f 34/42/5 33/92/5 36/43/5
f 40/45/1 43/93/1 42/46/1
f 39/48/7 48/94/7 51/49/7
f 49/51/5 52/68/5 47/52/5
f 29/54/11 33/95/11 34/55/11
f 31/57/12 35/96/12 36/58/12
f 32/60/7 36/97/7 33/61/7
f 38/63/13 37/47/14 42/46/14
f 44/65/15 43/93/2 40/45/32
f 46/53/18 45/98/19 50/67/19
f 52/68/33 51/63/23 48/69/21
f 11/70/34 25/99/35 26/71/36
